<?xml version="1.0" encoding="utf-8"?>
<!-- Generator: Adobe Illustrator 21.0.1, SVG Export Plug-In . SVG Version: 6.00 Build 0)  -->
<svg version="1.1" xmlns="http://www.w3.org/2000/svg" xmlns:xlink="http://www.w3.org/1999/xlink" x="0px" y="0px"
	 viewBox="0 0 1366 768" style="enable-background:new 0 0 1366 768;" xml:space="preserve">
<style type="text/css">
	.st0{display:none;}
	.st1{display:inline;}
	.st2{fill:url(#SVGID_1_);}
	.st3{fill:#F05C9F;}
	.st4{display:inline;fill:none;stroke:#F05C9F;stroke-miterlimit:10;}
	.st5{fill:none;stroke:#00A651;stroke-width:0.1;}
	.st6{fill:url(#SVGID_2_);}
	.st7{fill:none;stroke:#F05C9F;stroke-miterlimit:10;}
</style>
<g id="Layer_1" class="st0">
	<g class="st1">
		<linearGradient id="SVGID_1_" gradientUnits="userSpaceOnUse" x1="683" y1="0.5" x2="683" y2="767.5">
			<stop  offset="0" style="stop-color:#F05C9F"/>
			<stop  offset="1" style="stop-color:#F9BED9"/>
		</linearGradient>
		<rect x="0.5" y="0.5" class="st2" width="1365" height="767"/>
		<path class="st3" d="M1365,1v766H1V1H1365 M1366,0H0v768h1366V0L1366,0z"/>
	</g>
	<rect x="0.5" y="0.5" class="st4" width="86.3" height="767"/>
	<rect x="116.8" y="0.5" class="st4" width="86.3" height="767"/>
	<rect x="233" y="0.5" class="st4" width="86.3" height="767"/>
	<rect x="349.3" y="0.5" class="st4" width="86.3" height="767"/>
	<rect x="465.5" y="0.5" class="st4" width="86.3" height="767"/>
	<rect x="581.8" y="0.5" class="st4" width="86.3" height="767"/>
	<rect x="698" y="0.5" class="st4" width="86.3" height="767"/>
	<rect x="814.3" y="0.5" class="st4" width="86.3" height="767"/>
	<rect x="930.5" y="0.5" class="st4" width="86.3" height="767"/>
	<rect x="1046.8" y="0.5" class="st4" width="86.3" height="767"/>
	<rect x="1163" y="0.5" class="st4" width="86.3" height="767"/>
	<rect x="1279.3" y="0.5" class="st4" width="86.3" height="767"/>
	<g class="st1">
		<line class="st5" x1="1365.5" y1="-100" x2="1365.5" y2="868"/>
		<line class="st5" x1="1279.3" y1="-100" x2="1279.3" y2="868"/>
		<line class="st5" x1="1249.3" y1="-100" x2="1249.3" y2="868"/>
		<line class="st5" x1="1163" y1="-100" x2="1163" y2="868"/>
		<line class="st5" x1="1133" y1="-100" x2="1133" y2="868"/>
		<line class="st5" x1="1046.8" y1="-100" x2="1046.8" y2="868"/>
		<line class="st5" x1="1016.8" y1="-100" x2="1016.8" y2="868"/>
		<line class="st5" x1="930.5" y1="-100" x2="930.5" y2="868"/>
		<line class="st5" x1="900.5" y1="-100" x2="900.5" y2="868"/>
		<line class="st5" x1="814.3" y1="-100" x2="814.3" y2="868"/>
		<line class="st5" x1="784.3" y1="-100" x2="784.3" y2="868"/>
		<line class="st5" x1="698" y1="-100" x2="698" y2="868"/>
		<line class="st5" x1="668" y1="-100" x2="668" y2="868"/>
		<line class="st5" x1="581.8" y1="-100" x2="581.8" y2="868"/>
		<line class="st5" x1="551.8" y1="-100" x2="551.8" y2="868"/>
		<line class="st5" x1="465.5" y1="-100" x2="465.5" y2="868"/>
		<line class="st5" x1="435.5" y1="-100" x2="435.5" y2="868"/>
		<line class="st5" x1="349.3" y1="-100" x2="349.3" y2="868"/>
		<line class="st5" x1="319.3" y1="-100" x2="319.3" y2="868"/>
		<line class="st5" x1="233" y1="-100" x2="233" y2="868"/>
		<line class="st5" x1="203" y1="-100" x2="203" y2="868"/>
		<line class="st5" x1="116.8" y1="-100" x2="116.8" y2="868"/>
		<line class="st5" x1="86.8" y1="-100" x2="86.8" y2="868"/>
		<line class="st5" x1="0.5" y1="-100" x2="0.5" y2="868"/>
		<line class="st5" x1="-100" y1="767.5" x2="1466" y2="767.5"/>
		<line class="st5" x1="-100" y1="0.5" x2="1466" y2="0.5"/>
	</g>
</g>
<g id="Layer_1_copy">
	<g>
		<linearGradient id="SVGID_2_" gradientUnits="userSpaceOnUse" x1="683" y1="0.5" x2="683" y2="767.5">
			<stop  offset="0" style="stop-color:#F05C9F"/>
			<stop  offset="1" style="stop-color:#F9BED9"/>
		</linearGradient>
		<rect x="0.5" y="0.5" class="st6" width="1365" height="767"/>
		<path class="st3" d="M1365,1v766H1V1H1365 M1366,0H0v768h1366V0L1366,0z"/>
	</g>
	<rect x="0.5" y="0.5" class="st7" width="86.3" height="767"/>
	<rect x="116.8" y="0.5" class="st7" width="86.3" height="767"/>
	<rect x="233" y="0.5" class="st7" width="86.3" height="767"/>
	<rect x="349.3" y="0.5" class="st7" width="86.3" height="767"/>
	<rect x="465.5" y="0.5" class="st7" width="86.3" height="767"/>
	<rect x="581.8" y="0.5" class="st7" width="86.3" height="767"/>
	<rect x="698" y="0.5" class="st7" width="86.3" height="767"/>
	<rect x="814.3" y="0.5" class="st7" width="86.3" height="767"/>
	<rect x="930.5" y="0.5" class="st7" width="86.3" height="767"/>
	<rect x="1046.8" y="0.5" class="st7" width="86.3" height="767"/>
	<rect x="1163" y="0.5" class="st7" width="86.3" height="767"/>
	<rect x="1279.3" y="0.5" class="st7" width="86.3" height="767"/>
	<g>
	</g>
</g>
</svg>
